<?xml version="1.0" standalone="no"?><!DOCTYPE svg PUBLIC "-//W3C//DTD SVG 1.1//EN" "http://www.w3.org/Graphics/SVG/1.1/DTD/svg11.dtd"><svg t="1661218411914" class="icon" viewBox="0 0 1024 1024" version="1.1" xmlns="http://www.w3.org/2000/svg" p-id="3450" xmlns:xlink="http://www.w3.org/1999/xlink" width="200" height="200"><defs><style type="text/css">@font-face { font-family: feedback-iconfont; src: url("//at.alicdn.com/t/font_1031158_u69w8yhxdu.woff2?t=1630033759944") format("woff2"), url("//at.alicdn.com/t/font_1031158_u69w8yhxdu.woff?t=1630033759944") format("woff"), url("//at.alicdn.com/t/font_1031158_u69w8yhxdu.ttf?t=1630033759944") format("truetype"); }
</style></defs><path d="M640.1 442.5V75.9c0-6.6-5.4-12-12-12H76c-6.6 0-12 5.4-12 12v807.8c0 6.6 5.4 12 12 12h872.1c6.6 0 12-5.4 12-12V460.5c0-6.6-5.4-12-12-12h-302c-3.3 0-6-2.7-6-6z m-192 383.1v-51.8c0-3.3 2.7-6 6-6h52c3.3 0 6-2.7 6-6v-52c0-3.3-2.7-6-6-6H198c-3.3 0-6 2.7-6 6v52c0 3.3 2.7 6 6 6h52c3.3 0 6 2.7 6 6v51.8c0 3.3-2.7 6-6 6H134c-3.3 0-6-2.7-6-6V133.9c0-3.3 2.7-6 6-6h436.1c3.3 0 6 2.7 6 6v691.7c0 3.3-2.7 6-6 6h-116c-3.3 0-6-2.6-6-6z m442.1 6H646.3c-3.3 0-6-2.7-6-6v-51.8c0-3.3 2.7-6 6-6h179.8c3.3 0 6-2.7 6-6v-52c0-3.3-2.7-6-6-6H646.3c-3.3 0-6-2.7-6-6V646c0-3.3 2.7-6 6-6h179.8c3.3 0 6-2.7 6-6v-52c0-3.3-2.7-6-6-6H646.3c-3.3 0-6-2.7-6-6v-51.5c0-3.3 2.7-6 6-6h243.8c3.3 0 6 2.7 6 6v307.1c0.1 3.4-2.6 6-5.9 6z" p-id="3451" fill="#ffffff"></path><path d="M539.1 191.8h-116c-3.3 0-6 2.7-6 6v52c0 3.3 2.7 6 6 6h116c3.3 0 6-2.7 6-6v-52c0-3.3-2.7-6-6-6zM539.1 320h-116c-3.3 0-6 2.7-6 6v52c0 3.3 2.7 6 6 6h116c3.3 0 6-2.7 6-6v-52c0-3.3-2.7-6-6-6zM539.1 448.2h-116c-3.3 0-6 2.7-6 6v52c0 3.3 2.7 6 6 6h116c3.3 0 6-2.7 6-6v-52c0-3.3-2.7-6-6-6zM423.1 640h116c3.3 0 6-2.7 6-6v-52c0-3.3-2.7-6-6-6h-116c-3.3 0-6 2.7-6 6v52c0 3.4 2.7 6 6 6zM347 191.8h-52c-3.3 0-6 2.7-6 6v52c0 3.3 2.7 6 6 6h52c3.3 0 6-2.7 6-6v-52c0-3.3-2.6-6-6-6zM347 320h-52c-3.3 0-6 2.7-6 6v52c0 3.3 2.7 6 6 6h52c3.3 0 6-2.7 6-6v-52c0-3.3-2.6-6-6-6zM347 448.2h-52c-3.3 0-6 2.7-6 6v52c0 3.3 2.7 6 6 6h52c3.3 0 6-2.7 6-6v-52c0-3.3-2.6-6-6-6zM295.1 640h52c3.3 0 6-2.7 6-6v-52c0-3.3-2.7-6-6-6h-52c-3.3 0-6 2.7-6 6v52c0 3.4 2.7 6 6 6zM219 191.8h-52c-3.3 0-6 2.7-6 6v52c0 3.3 2.7 6 6 6h52c3.3 0 6-2.7 6-6v-52c0-3.3-2.7-6-6-6zM219 320h-52c-3.3 0-6 2.7-6 6v52c0 3.3 2.7 6 6 6h52c3.3 0 6-2.7 6-6v-52c0-3.3-2.7-6-6-6zM219 448.2h-52c-3.3 0-6 2.7-6 6v52c0 3.3 2.7 6 6 6h52c3.3 0 6-2.7 6-6v-52c0-3.3-2.7-6-6-6zM167 640h52c3.3 0 6-2.7 6-6v-52c0-3.3-2.7-6-6-6h-52c-3.3 0-6 2.7-6 6v52c0 3.4 2.7 6 6 6z" p-id="3452" fill="#ffffff"></path></svg>