<?xml version="1.0" standalone="no"?><!DOCTYPE svg PUBLIC "-//W3C//DTD SVG 1.1//EN" "http://www.w3.org/Graphics/SVG/1.1/DTD/svg11.dtd"><svg t="1658741169788" class="icon" viewBox="0 0 1025 1024" version="1.1" xmlns="http://www.w3.org/2000/svg" p-id="2265" xmlns:xlink="http://www.w3.org/1999/xlink" width="200.1953125" height="200"><defs><style type="text/css">@font-face { font-family: feedback-iconfont; src: url("//at.alicdn.com/t/font_1031158_u69w8yhxdu.woff2?t=1630033759944") format("woff2"), url("//at.alicdn.com/t/font_1031158_u69w8yhxdu.woff?t=1630033759944") format("woff"), url("//at.alicdn.com/t/font_1031158_u69w8yhxdu.ttf?t=1630033759944") format("truetype"); }
</style></defs><path d="M513.099356 0.599649c-282.634394 0-511.700176 229.065782-511.700176 511.700175s229.065782 511.700176 511.700176 511.700176 511.700176-229.065782 511.700176-511.700176S795.73375 0.599649 513.099356 0.599649z m225.567831 399.865703L461.429631 677.602967c-9.794261 9.794261-25.585009 9.794261-35.37927 0L287.631466 539.08413c-9.794261-9.794261-9.794261-25.585009 0-35.37927 9.794261-9.794261 25.585009-9.794261 35.37927 0l120.829202 120.929144 259.547921-259.547922c9.794261-9.794261 25.585009-9.794261 35.37927 0 9.69432 9.794261 9.69432 25.585009-0.099942 35.37927z" p-id="2266" fill="currentColor"></path></svg>